<?xml version="1.0" encoding="UTF-8" standalone="no"?>
<!DOCTYPE svg PUBLIC "-//W3C//DTD SVG 1.1//EN" "http://www.w3.org/Graphics/SVG/1.1/DTD/svg11.dtd">
<svg xmlns="http://www.w3.org/2000/svg" version="1.1" viewBox="0.00 0.00 306.00 302.00">
<circle fill="#000080" cx="153.00" cy="35.00" r="33.98"/>
<circle fill="#000080" cx="84.50" cy="35.50" r="25.48"/>
<circle fill="#000080" cx="220.50" cy="35.50" r="25.48"/>
<circle fill="#000080" cx="270.00" cy="34.00" r="16.98"/>
<circle fill="#000080" cx="35.00" cy="35.00" r="16.98"/>
<circle fill="#001d60" cx="270.50" cy="85.50" r="25.48"/>
<circle fill="#000080" cx="34.50" cy="86.50" r="25.48"/>
<circle fill="#000080" cx="92.00" cy="93.00" r="16.98"/>
<circle fill="#000080" cx="212.00" cy="93.00" r="16.98"/>
<circle fill="#000080" cx="152.50" cy="102.50" r="25.48"/>
<circle fill="#000080" cx="271.00" cy="153.00" r="33.98"/>
<circle fill="#000080" cx="35.00" cy="155.00" r="33.98"/>
<circle fill="#000080" cx="103.50" cy="152.50" r="25.48"/>
<circle fill="#000080" cx="202.50" cy="152.50" r="25.48"/>
<circle fill="#000080" cx="153.00" cy="153.00" r="16.98"/>
<circle fill="#000080" cx="151.50" cy="202.50" r="25.48"/>
<circle fill="#000080" cx="34.50" cy="219.50" r="25.48"/>
<circle fill="#000080" cx="92.00" cy="211.00" r="16.98"/>
<circle fill="#000080" cx="212.00" cy="211.00" r="16.98"/>
<circle fill="#001d60" cx="270.50" cy="219.50" r="25.48"/>
<path fill="#000080" d="
  M 154.60 302.00
  L 149.51 302.00
  Q 131.78 299.76 123.27 286.06
  C 111.88 267.71 119.82 244.41 139.51 236.40
  C 150.77 231.82 163.79 233.93 173.49 241.70
  C 187.50 252.91 189.81 273.00 179.76 287.53
  Q 171.22 299.87 154.60 302.00
  Z"
/>
<circle fill="#000080" cx="84.50" cy="269.50" r="25.48"/>
<circle fill="#000080" cx="221.50" cy="269.50" r="25.48"/>
<circle fill="#000080" cx="35.00" cy="270.00" r="16.98"/>
<circle fill="#001d60" cx="270.00" cy="270.00" r="16.98"/>
</svg>
